<?xml version="1.0" standalone="no"?>
<!DOCTYPE svg PUBLIC "-//W3C//DTD SVG 20010904//EN"
 "http://www.w3.org/TR/2001/REC-SVG-20010904/DTD/svg10.dtd">
<svg version="1.0" xmlns="http://www.w3.org/2000/svg"
 width="308.000000pt" height="164.000000pt" viewBox="0 0 308.000000 164.000000"
 preserveAspectRatio="xMidYMid meet">

<g transform="translate(0.000000,164.000000) scale(0.100000,-0.100000)"
fill="#000000" stroke="none">
<path d="M450 1035 l0 -75 -55 0 -55 0 0 -35 0 -35 55 0 55 0 0 -70 0 -70 40
0 40 0 0 180 0 180 -40 0 -40 0 0 -75z"/>
<path d="M2250 795 l0 -315 38 0 37 0 -3 175 -3 175 36 0 35 0 0 -177 0 -178
35 0 35 0 0 318 0 317 -35 0 -35 0 0 -106 0 -105 -32 3 -33 3 0 103 0 102 -37
0 -38 0 0 -315z"/>
<path d="M2918 979 c2 -73 -1 -136 -6 -141 -5 -5 -75 -12 -156 -15 l-146 -6 0
101 0 102 105 0 105 0 0 30 0 30 -145 0 -145 0 2 -162 3 -163 120 0 c66 0 152
2 190 5 l70 5 3 -57 3 -58 34 0 35 0 0 110 0 110 45 0 c45 0 45 0 45 35 0 35
0 35 -45 35 l-45 0 0 85 0 85 -37 0 -38 0 3 -131z"/>
<path d="M660 970 l0 -120 85 0 85 0 0 -35 0 -35 -120 0 -120 0 0 -35 0 -35
81 0 80 0 -20 -26 c-83 -105 29 -263 168 -239 116 19 178 139 121 233 l-20 32
78 0 78 0 -4 35 -4 35 -119 0 -119 0 0 35 0 35 88 0 87 0 -3 120 -3 120 -210
0 -209 0 0 -120z m350 0 l0 -60 -135 0 -135 0 0 60 0 60 135 0 135 0 0 -60z
m-82 -297 c74 -46 34 -163 -56 -163 -99 0 -129 136 -39 175 34 15 58 12 95
-12z"/>
<path d="M30 1050 l0 -30 60 0 c70 0 77 -8 60 -68 -13 -50 -51 -97 -107 -132
l-42 -27 24 -23 c23 -22 27 -22 52 -9 15 8 48 34 74 59 l47 45 51 -42 c67 -55
95 -63 120 -32 18 22 18 25 3 33 -85 44 -128 92 -138 155 l-7 41 72 0 71 0 0
30 0 30 -170 0 -170 0 0 -30z"/>
<path d="M1232 1048 l3 -33 174 -3 174 -2 -6 -98 c-3 -54 -9 -105 -13 -115 -5
-15 -26 -17 -200 -17 l-194 0 0 -30 0 -30 120 0 120 0 0 -130 0 -130 40 0 40
0 0 130 0 130 125 0 125 0 0 30 c0 30 0 30 -56 30 -48 0 -55 2 -50 18 12 41
26 152 26 215 l0 67 -216 0 -215 0 3 -32z"/>
<path d="M1920 1045 l0 -35 56 0 56 0 -4 -87 c-5 -99 -31 -163 -92 -228 l-35
-37 22 -19 c12 -10 26 -18 30 -19 12 0 74 70 94 107 21 39 26 40 40 11 16 -34
83 -108 97 -108 7 0 21 9 30 19 17 19 17 21 -19 57 -60 60 -85 124 -85 222 l0
82 45 0 c45 0 45 0 45 35 l0 35 -140 0 -140 0 0 -35z"/>
<path d="M294 740 c-46 -14 -90 -60 -105 -108 -17 -59 8 -123 64 -160 53 -36
135 -37 189 -4 46 29 83 100 74 144 -19 97 -124 158 -222 128z m99 -72 c54
-28 63 -89 21 -132 -55 -54 -154 -18 -154 56 1 68 72 109 133 76z"/>
<path d="M2600 578 l0 -103 205 0 205 0 0 32 0 33 -167 2 -168 3 -1 65 -1 65
-37 3 -36 3 0 -103z"/>
<path d="M20 330 c0 -20 7 -20 1495 -20 1488 0 1495 0 1495 20 0 20 -7 20
-1495 20 -1488 0 -1495 0 -1495 -20z"/>
<path d="M42 187 c-52 -55 -13 -138 64 -136 l39 1 -40 9 c-46 11 -65 31 -65
69 0 39 22 62 66 70 l39 8 -41 1 c-30 1 -46 -5 -62 -22z"/>
<path d="M160 130 c0 -47 4 -80 10 -80 6 0 10 17 10 38 0 41 14 62 42 62 20 0
33 -37 26 -75 -3 -14 -1 -25 3 -25 5 0 9 22 9 49 0 59 -18 80 -55 63 -24 -11
-25 -10 -25 18 0 17 -4 30 -10 30 -6 0 -10 -33 -10 -80z"/>
<path d="M742 128 l2 -83 6 70 c6 76 5 77 45 -22 9 -24 20 -43 24 -43 3 0 18
30 33 68 l27 67 0 -67 c1 -38 5 -68 11 -68 6 0 10 33 10 80 0 99 -17 107 -50
23 -13 -32 -26 -61 -29 -65 -4 -4 -18 21 -31 57 -34 92 -50 86 -48 -17z"/>
<path d="M1430 130 c0 -47 4 -80 10 -80 6 0 10 16 10 35 0 19 4 35 8 35 4 0
23 -16 42 -35 19 -19 38 -35 44 -35 6 0 -7 18 -28 39 l-39 40 31 37 c43 51 31
57 -18 9 l-40 -39 0 37 c0 20 -4 37 -10 37 -6 0 -10 -33 -10 -80z"/>
<path d="M1890 130 c0 -81 16 -112 22 -42 3 35 5 37 36 37 17 0 32 3 32 7 0 5
-16 8 -36 8 -33 0 -35 2 -32 28 3 23 9 28 43 33 39 6 39 6 -12 8 l-53 1 0 -80z"/>
<path d="M2480 184 c0 -22 -3 -25 -23 -20 -50 12 -84 -44 -57 -95 9 -15 20
-19 55 -17 l45 1 0 79 c0 45 -4 78 -10 78 -5 0 -10 -12 -10 -26z m-16 -40 c20
-8 21 -57 1 -74 -31 -25 -63 9 -51 55 6 25 20 30 50 19z"/>
<path d="M2720 200 c0 -5 5 -10 10 -10 6 0 10 5 10 10 0 6 -4 10 -10 10 -5 0
-10 -4 -10 -10z"/>
<path d="M2650 181 c0 -11 -6 -22 -12 -24 -10 -4 -10 -6 0 -6 7 -1 12 -15 12
-35 0 -51 9 -66 39 -65 25 0 25 0 4 9 -19 8 -23 17 -23 49 0 29 5 41 18 44 16
4 16 5 0 6 -11 1 -18 9 -18 21 0 11 -4 20 -10 20 -5 0 -10 -9 -10 -19z"/>
<path d="M438 159 c-13 -7 -18 -23 -18 -59 0 -64 18 -65 22 -2 3 43 5 47 28
47 23 0 25 -4 28 -47 4 -60 22 -63 22 -4 0 65 -35 93 -82 65z"/>
<path d="M560 150 c-24 -24 -25 -48 -4 -79 13 -18 23 -22 46 -17 24 5 29 3 26
-12 -2 -11 -14 -18 -36 -20 -38 -4 -44 -22 -7 -22 44 0 65 32 65 101 0 50 -3
60 -15 56 -8 -4 -17 -2 -20 3 -10 16 -34 11 -55 -10z m65 -40 c0 -31 -3 -35
-27 -38 -22 -3 -29 2 -34 22 -8 32 12 58 40 54 17 -2 21 -10 21 -38z"/>
<path d="M945 145 c-29 -28 -31 -42 -9 -73 16 -24 53 -29 85 -12 28 15 26 74
-3 94 -31 22 -45 20 -73 -9z m76 -22 c11 -31 -19 -68 -49 -59 -27 9 -39 50
-21 72 18 21 60 14 70 -13z"/>
<path d="M1088 159 c-14 -8 -18 -22 -17 -62 1 -30 4 -39 6 -22 8 70 12 76 41
73 25 -3 27 -7 30 -50 4 -58 22 -64 22 -8 0 27 -7 47 -20 60 -22 22 -37 24
-62 9z"/>
<path d="M1207 152 c-39 -43 -9 -109 45 -98 26 5 28 4 18 -14 -7 -13 -21 -20
-40 -20 -17 0 -30 -4 -30 -10 0 -13 46 -13 71 0 16 9 19 22 19 79 0 47 -4 68
-12 69 -7 0 -22 3 -33 7 -14 4 -27 0 -38 -13z m63 -17 c7 -9 10 -25 6 -41 -5
-20 -12 -25 -34 -22 -28 3 -40 32 -28 64 7 18 40 18 56 -1z"/>
<path d="M1583 155 c-27 -19 -31 -66 -7 -89 49 -50 134 21 92 77 -19 24 -60
30 -85 12z m65 -17 c35 -35 -15 -99 -53 -68 -15 13 -21 61 -8 73 11 11 48 8
61 -5z"/>
<path d="M1716 149 c-61 -48 4 -127 75 -89 28 15 26 74 -3 94 -29 21 -40 20
-72 -5z m75 -26 c11 -31 -19 -68 -49 -59 -27 9 -39 50 -21 72 18 21 60 14 70
-13z"/>
<path d="M2023 155 c-27 -19 -31 -66 -7 -89 34 -35 104 -8 104 40 0 48 -58 77
-97 49z m67 -19 c28 -35 -11 -93 -47 -70 -36 22 -23 84 17 84 10 0 23 -7 30
-14z"/>
<path d="M2288 159 c-13 -7 -18 -23 -18 -59 0 -64 18 -65 22 -2 3 43 5 47 28
47 23 0 25 -4 28 -47 4 -61 22 -63 22 -4 0 35 -5 48 -22 60 -26 18 -36 19 -60
5z"/>
<path d="M2535 160 c-4 -6 6 -10 23 -10 17 0 32 -6 36 -15 4 -11 -2 -15 -22
-15 -38 0 -54 -13 -50 -41 3 -21 8 -24 51 -25 l47 -1 0 39 c0 25 -7 45 -20 58
-21 21 -55 26 -65 10z m54 -59 c12 -8 12 -12 2 -25 -24 -29 -60 -13 -47 19 6
17 24 19 45 6z"/>
<path d="M2785 145 c-29 -28 -31 -42 -9 -73 16 -24 53 -29 85 -12 28 15 26 74
-3 94 -31 22 -45 20 -73 -9z m76 -22 c11 -31 -19 -68 -49 -59 -27 9 -39 50
-21 72 18 21 60 14 70 -13z"/>
<path d="M2928 159 c-14 -8 -18 -22 -17 -62 1 -30 4 -39 6 -22 8 70 12 76 41
73 25 -3 27 -7 30 -50 4 -58 22 -64 22 -8 0 27 -7 47 -20 60 -22 22 -37 24
-62 9z"/>
<path d="M290 122 c0 -54 18 -74 60 -70 l35 3 1 55 c2 53 1 53 -5 11 -11 -80
-71 -80 -71 0 0 22 -4 39 -10 39 -5 0 -10 -17 -10 -38z"/>
<path d="M2140 116 c0 -52 16 -69 62 -64 32 3 33 4 36 56 2 30 -1 52 -7 52 -5
0 -11 -21 -13 -47 -3 -44 -5 -48 -28 -48 -23 0 -25 4 -28 48 -4 59 -22 62 -22
3z"/>
<path d="M2720 105 c0 -30 5 -55 10 -55 6 0 10 25 10 55 0 30 -4 55 -10 55 -5
0 -10 -25 -10 -55z"/>
<path d="M1320 130 c0 -5 20 -10 45 -10 25 0 45 5 45 10 0 6 -20 10 -45 10
-25 0 -45 -4 -45 -10z"/>
</g>
</svg>
