<?xml version="1.0" standalone="no"?>
<!DOCTYPE svg PUBLIC "-//W3C//DTD SVG 20010904//EN"
 "http://www.w3.org/TR/2001/REC-SVG-20010904/DTD/svg10.dtd">
<svg version="1.0" xmlns="http://www.w3.org/2000/svg"
 width="224.000000pt" height="225.000000pt" viewBox="0 0 224.000000 225.000000"
 preserveAspectRatio="xMidYMid meet">

<g transform="translate(0.000000,225.000000) scale(0.100000,-0.100000)"
fill="#000000" stroke="none">
<path d="M520 1390 c-49 -9 -78 -26 -93 -58 -22 -42 -27 -75 -18 -107 l9 -30
1 28 c2 46 27 84 66 97 48 16 125 -7 208 -63 59 -40 63 -41 59 -20 -2 13 -13
29 -23 37 -12 8 -18 23 -16 42 2 24 -4 32 -34 46 -47 24 -116 35 -159 28z"/>
<path d="M223 1163 c-9 -3 -13 -33 -13 -97 0 -51 3 -95 6 -98 3 -3 14 -4 25
-1 16 4 19 14 19 57 l1 51 27 -31 c15 -17 37 -43 50 -58 19 -22 26 -25 43 -16
18 10 19 19 17 103 -3 91 -3 92 -28 92 -23 0 -25 -5 -30 -52 l-5 -52 -39 55
c-38 52 -47 58 -73 47z"/>
<path d="M430 1070 l0 -100 25 0 c23 0 25 4 25 47 l0 47 43 -46 c41 -46 51
-52 91 -49 17 1 16 5 -13 35 l-33 34 21 21 c21 21 27 56 13 77 -15 23 -52 34
-111 34 l-61 0 0 -100z m118 33 c3 -20 -1 -23 -32 -23 -32 0 -36 3 -36 26 0
23 3 25 33 22 24 -2 33 -8 35 -25z"/>
<path d="M653 1163 c-9 -3 -13 -33 -13 -98 0 -66 4 -95 13 -98 24 -8 37 6 37
39 l0 34 50 0 c43 0 50 3 50 20 0 17 -7 20 -50 20 -43 0 -50 3 -50 20 0 18 7
20 55 20 52 0 55 1 55 25 0 24 -2 25 -67 24 -38 0 -74 -3 -80 -6z"/>
<path d="M1443 1125 c0 -27 2 -38 4 -22 2 15 2 37 0 50 -2 12 -4 0 -4 -28z"/>
<path d="M1852 1130 c-1 -40 0 -42 9 -20 l10 25 14 -25 14 -25 1 23 c0 15 -7
26 -19 29 -11 3 -22 12 -24 22 -3 9 -5 -4 -5 -29z"/>
<path d="M1061 1123 c1 -33 2 -35 8 -13 l7 25 12 -22 c19 -34 32 -28 31 15 -1
23 -3 28 -6 15 -5 -28 -20 -30 -28 -3 -11 33 -25 23 -24 -17z"/>
<path d="M1490 1123 c1 -33 2 -36 13 -21 12 15 14 15 24 0 9 -14 10 -10 9 18
-1 28 -6 36 -24 38 -19 3 -22 -1 -22 -35z m35 17 c3 -5 -1 -10 -10 -10 -9 0
-13 5 -10 10 3 6 8 10 10 10 2 0 7 -4 10 -10z"/>
<path d="M1188 1144 c-8 -7 11 -64 22 -64 11 0 5 63 -7 67 -5 2 -12 1 -15 -3z"/>
<path d="M1148 1133 c10 -4 9 -8 -4 -17 -9 -7 -14 -18 -10 -24 8 -14 16 -15
35 -3 18 12 5 51 -17 50 -11 0 -13 -2 -4 -6z"/>
<path d="M1232 1115 c0 -16 2 -22 5 -12 2 9 2 23 0 30 -3 6 -5 -1 -5 -18z"/>
<path d="M1256 1123 c-4 -9 -1 -23 7 -30 18 -18 51 5 41 30 -8 22 -40 22 -48
0z m36 -8 c0 -5 -5 -11 -11 -13 -6 -2 -11 4 -11 13 0 9 5 15 11 13 6 -2 11 -8
11 -13z"/>
<path d="M1321 1108 c2 -31 2 -31 6 -5 4 25 23 39 23 16 0 -5 5 -7 10 -4 15 9
2 25 -21 25 -15 0 -19 -6 -18 -32z"/>
<path d="M1400 1130 c13 -8 12 -10 -2 -10 -10 0 -18 -7 -18 -15 0 -8 9 -15 20
-15 15 0 20 7 20 25 0 17 -5 25 -17 25 -15 0 -16 -2 -3 -10z"/>
<path d="M1554 1126 c-7 -18 12 -46 30 -45 7 0 6 2 -1 6 -18 7 -16 23 3 23 20
0 13 24 -9 28 -10 2 -20 -4 -23 -12z m33 -2 c-3 -3 -12 -4 -19 -1 -8 3 -5 6 6
6 11 1 17 -2 13 -5z"/>
<path d="M1610 1125 c0 -8 6 -15 13 -15 8 0 7 -3 -3 -10 -8 -5 -11 -12 -8 -15
10 -10 28 4 28 21 0 8 -6 14 -12 14 -9 0 -8 4 2 10 13 8 12 10 -2 10 -10 0
-18 -7 -18 -15z"/>
<path d="M1654 1125 c-10 -24 22 -53 38 -36 11 10 10 11 -4 6 -11 -4 -18 -2
-18 4 0 6 7 11 16 11 20 0 13 24 -9 28 -10 2 -20 -4 -23 -13z"/>
<path d="M1728 1133 c10 -4 9 -8 -4 -17 -20 -15 -11 -38 11 -29 22 8 19 53 -2
52 -12 0 -13 -2 -5 -6z"/>
<path d="M1771 1107 c0 -18 3 -25 6 -17 2 8 7 22 9 30 4 10 8 8 17 -10 7 -13
19 -26 27 -28 11 -4 11 0 -3 16 -18 19 -18 21 -1 30 14 8 11 10 -19 10 -35 0
-37 -2 -36 -31z"/>
<path d="M1330 1036 c0 -9 -6 -16 -14 -16 -8 0 -16 -6 -19 -12 -7 -20 12 -48
27 -42 15 6 27 72 14 80 -4 3 -8 -2 -8 -10z m0 -41 c0 -8 -4 -15 -10 -15 -5 0
-10 7 -10 15 0 8 5 15 10 15 6 0 10 -7 10 -15z"/>
<path d="M1702 1033 c-5 -10 -6 -29 -1 -43 6 -23 7 -23 8 -3 1 12 7 24 14 26
9 4 9 6 0 6 -7 1 -10 8 -7 16 8 21 -3 19 -14 -2z"/>
<path d="M1060 1005 c0 -33 1 -34 18 -17 15 14 16 18 3 23 -12 5 -12 8 4 17
19 11 19 11 -2 12 -20 0 -23 -5 -23 -35z"/>
<path d="M1760 1005 c0 -19 5 -35 10 -35 6 0 10 5 10 12 0 9 3 9 12 0 22 -22
32 -12 10 11 -12 13 -22 29 -22 35 0 7 -4 12 -10 12 -5 0 -10 -16 -10 -35z"/>
<path d="M1795 1029 c-11 -17 1 -21 15 -4 8 9 8 15 2 15 -6 0 -14 -5 -17 -11z"/>
<path d="M1418 1025 c-7 -7 2 -54 12 -60 4 -3 7 9 5 25 -2 32 -8 44 -17 35z"/>
<path d="M1117 1014 c-12 -12 -8 -42 6 -47 21 -8 39 8 35 29 -3 19 -29 30 -41
18z m31 -21 c-4 -22 -22 -20 -26 1 -2 10 3 16 13 16 10 0 15 -7 13 -17z"/>
<path d="M1170 996 c0 -13 6 -26 13 -29 22 -8 37 5 36 32 -1 20 -2 22 -6 6 -8
-34 -23 -41 -23 -12 0 15 -4 27 -10 27 -5 0 -10 -11 -10 -24z"/>
<path d="M1238 995 c-3 -14 -1 -25 3 -25 5 0 9 9 9 20 0 30 18 24 23 -7 4 -26
4 -26 6 5 1 25 -3 32 -18 32 -12 0 -20 -9 -23 -25z"/>
<path d="M1374 1011 c18 -7 18 -8 2 -14 -21 -8 -17 -29 7 -33 13 -2 17 5 17
27 0 24 -4 29 -22 28 -21 0 -21 -1 -4 -8z"/>
<path d="M1450 995 c0 -14 5 -25 10 -25 6 0 10 11 10 25 0 14 -4 25 -10 25 -5
0 -10 -11 -10 -25z"/>
<path d="M1487 1014 c-12 -12 -8 -42 6 -47 21 -8 39 8 35 29 -3 19 -29 30 -41
18z m31 -21 c-4 -22 -22 -20 -26 1 -2 10 3 16 13 16 10 0 15 -7 13 -17z"/>
<path d="M1540 995 c0 -14 5 -25 10 -25 6 0 10 9 10 20 0 27 18 25 23 -2 4
-20 4 -19 6 5 1 23 -3 27 -24 27 -20 0 -25 -5 -25 -25z"/>
<path d="M1634 1006 c-8 -21 13 -46 32 -39 20 8 13 47 -9 51 -9 2 -20 -4 -23
-12z m36 -11 c0 -8 -7 -15 -15 -15 -16 0 -20 12 -8 23 11 12 23 8 23 -8z"/>
<path d="M1837 1014 c-12 -12 -8 -42 6 -47 21 -8 39 8 35 29 -3 19 -29 30 -41
18z m33 -19 c0 -8 -7 -15 -15 -15 -8 0 -15 7 -15 15 0 8 7 15 15 15 8 0 15 -7
15 -15z"/>
<path d="M1890 993 c0 -29 2 -29 19 5 10 18 9 22 -4 22 -10 0 -15 -9 -15 -27z"/>
<path d="M1930 996 c0 -25 25 -43 35 -25 4 5 1 8 -5 7 -7 -2 -14 5 -15 15 -4
19 11 23 18 5 3 -8 6 -6 6 5 1 11 -6 17 -19 17 -14 0 -20 -7 -20 -24z"/>
<path d="M1998 1012 c11 -7 11 -10 -2 -15 -25 -10 -19 -27 10 -27 21 0 25 4
22 22 -2 14 -11 24 -23 26 -15 2 -16 1 -7 -6z"/>
<path d="M910 979 c0 -6 -7 -26 -16 -45 -30 -64 -135 -71 -244 -17 -32 16 -54
23 -49 16 6 -7 43 -29 81 -48 110 -54 204 -47 257 21 22 28 28 64 10 64 -6 0
-8 -9 -4 -21 5 -15 4 -19 -4 -15 -6 4 -11 18 -11 32 0 13 -4 24 -10 24 -5 0
-10 -5 -10 -11z"/>
</g>
</svg>
