<?xml version="1.0" standalone="no"?>
<!DOCTYPE svg PUBLIC "-//W3C//DTD SVG 20010904//EN"
 "http://www.w3.org/TR/2001/REC-SVG-20010904/DTD/svg10.dtd">
<svg version="1.0" xmlns="http://www.w3.org/2000/svg"
 width="225.000000pt" height="225.000000pt" viewBox="0 0 225.000000 225.000000"
 preserveAspectRatio="xMidYMid meet">

<g transform="translate(0.000000,225.000000) scale(0.100000,-0.100000)"
fill="#000000" stroke="none">
<path d="M1041 1839 c-163 -21 -283 -81 -407 -204 -78 -77 -98 -104 -138 -185
-60 -123 -80 -214 -73 -345 9 -171 73 -327 181 -442 32 -35 62 -63 66 -63 5 0
20 25 34 56 73 158 207 302 348 373 68 34 78 41 53 41 -119 -1 -334 -119 -405
-224 -14 -20 -28 -36 -31 -36 -13 0 -78 137 -93 196 -29 113 -18 271 26 377
23 53 26 54 124 32 36 -9 69 -14 72 -10 3 3 -8 22 -25 43 -16 20 -38 52 -48
69 l-19 33 29 30 c50 53 157 119 232 145 145 51 316 40 447 -28 l61 -31 -55
-7 c-73 -8 -136 -38 -183 -85 -72 -73 -97 -155 -77 -258 17 -89 52 -145 173
-274 117 -125 147 -181 147 -276 0 -108 -48 -190 -141 -241 -49 -27 -62 -30
-149 -30 -83 0 -102 3 -150 27 -31 15 -74 43 -97 63 -23 19 -44 35 -47 35 -6
0 -66 -101 -66 -112 0 -4 26 -21 58 -37 311 -157 651 -32 712 262 28 137 -15
243 -160 392 -115 118 -150 179 -150 263 0 90 38 155 114 194 33 17 52 19 115
15 42 -3 86 -9 98 -12 42 -13 40 22 -3 66 -134 138 -369 215 -573 188z"/>
</g>
</svg>
